<?xml version="1.0" standalone="no"?>
<!DOCTYPE svg PUBLIC "-//W3C//DTD SVG 20010904//EN"
 "http://www.w3.org/TR/2001/REC-SVG-20010904/DTD/svg10.dtd">
<svg version="1.0" xmlns="http://www.w3.org/2000/svg"
 width="310.000000pt" height="310.000000pt" viewBox="0 0 310.000000 310.000000"
 preserveAspectRatio="xMidYMid meet">
<metadata>
Created by potrace 1.14, written by Peter Selinger 2001-2017
</metadata>
<g transform="translate(0.000000,310.000000) scale(0.100000,-0.100000)"
fill="#000000" stroke="none">
<path d="M0 1550 l0 -1550 870 0 c479 0 870 2 870 5 0 2 -44 33 -97 68 -71 47
-113 84 -153 133 -30 38 -74 90 -97 116 -41 46 -131 213 -121 223 3 3 24 -16
48 -42 41 -45 89 -84 188 -152 46 -32 201 -73 287 -77 68 -3 126 -13 152 -26
19 -9 28 -7 57 16 19 14 40 26 46 26 8 0 10 8 7 22 -8 31 21 86 54 104 16 8
41 30 56 49 27 34 56 45 67 26 3 -5 -10 -21 -29 -35 -40 -31 -43 -42 -15 -51
27 -9 14 -28 -14 -21 -16 4 -31 -5 -59 -33 l-37 -38 51 -7 c47 -6 50 -8 36
-24 -8 -9 -13 -22 -10 -28 2 -6 -3 -17 -12 -24 -26 -22 -18 -59 16 -78 110
-60 124 -80 84 -122 l-29 -30 442 0 442 0 0 1550 0 1550 -1125 0 -1125 0 -10
-27 c-6 -16 -15 -37 -22 -48 -6 -11 -21 -38 -31 -60 -11 -22 -31 -51 -44 -65
-14 -14 -38 -50 -54 -81 -58 -117 -87 -115 -53 3 26 91 28 98 16 98 -12 0 -41
-65 -52 -118 -6 -26 -19 -81 -30 -122 -11 -41 -22 -105 -26 -142 -3 -38 -9
-68 -12 -68 -7 1 -66 119 -127 254 -35 78 -35 79 -35 227 l0 149 -185 0 -185
0 0 -1550z m948 1363 l-2 -158 -6 150 c-3 83 -4 153 -2 158 10 23 12 -9 10
-150z m762 141 c0 -34 -20 -54 -56 -54 -29 0 -33 3 -26 16 8 15 60 52 75 53 4
1 7 -6 7 -15z m85 -33 c6 -10 -33 -36 -41 -28 -3 2 -2 12 2 21 7 18 29 22 39
7z m588 -29 c42 -40 17 -92 -44 -92 -35 0 -37 4 -45 75 l-7 57 34 -7 c19 -4
46 -19 62 -33z m-287 -247 c3 -18 20 -51 37 -72 18 -21 41 -56 52 -78 11 -22
59 -79 108 -126 55 -55 87 -94 87 -108 0 -28 40 -89 63 -97 14 -4 15 -9 7 -19
-19 -22 -64 -27 -96 -10 -16 8 -33 15 -37 15 -5 0 -20 9 -34 20 -14 11 -34 20
-45 20 -10 0 -22 10 -27 23 -5 12 -72 84 -150 160 -79 78 -144 149 -147 163
-9 34 7 49 36 34 25 -14 57 4 41 24 -13 15 6 39 47 60 17 9 32 21 32 27 0 23
20 -4 26 -36z m-404 -202 c39 -41 70 -95 75 -130 4 -27 -7 -29 -50 -7 -36 19
-45 30 -69 94 -34 87 -16 105 44 43z m-222 -33 c0 -5 -4 -10 -10 -10 -5 0 -10
5 -10 10 0 6 5 10 10 10 6 0 10 -4 10 -10z m550 -20 c0 -5 -2 -10 -4 -10 -3 0
-8 5 -11 10 -3 6 -1 10 4 10 6 0 11 -4 11 -10z m-30 -9 c0 -6 -4 -13 -10 -16
-5 -3 -10 1 -10 9 0 9 5 16 10 16 6 0 10 -4 10 -9z m-516 -17 c10 -27 7 -201
-4 -184 -14 23 -33 148 -26 175 7 28 21 32 30 9z m65 -51 c11 -10 36 -49 55
-88 68 -141 81 -185 51 -185 -9 0 -15 -9 -15 -25 0 -50 -40 -19 -84 65 -34 66
-62 250 -37 250 5 0 18 -8 30 -17z m266 -63 c3 -5 1 -10 -4 -10 -6 0 -11 5
-11 10 0 6 2 10 4 10 3 0 8 -4 11 -10z m149 -49 c3 -5 -1 -14 -9 -21 -12 -10
-18 -10 -30 0 -8 7 -15 16 -15 21 0 12 47 12 54 0z m141 -21 c8 -13 -15 -13
-35 0 -12 8 -11 10 7 10 12 0 25 -4 28 -10z m-197 -140 c0 -51 0 -51 -15 -23
-8 15 -16 48 -19 73 l-5 45 19 -22 c14 -16 20 -37 20 -73z m177 -40 c25 -48
35 -140 16 -140 -4 0 -18 26 -30 58 -11 32 -32 69 -46 82 -37 34 -35 37 27 49
4 0 19 -21 33 -49z m-938 8 c32 -30 32 -117 -1 -201 -13 -34 -26 -69 -29 -78
-7 -20 -75 -33 -94 -17 -9 7 -13 42 -13 122 0 123 7 142 64 177 39 24 45 24
73 -3z m850 -142 c-4 -9 -11 -16 -17 -16 -11 0 -14 33 -3 44 11 10 26 -11 20
-28z m-1037 -87 c0 -57 -13 -89 -37 -89 -28 0 -7 -11 28 -14 19 -2 47 -9 63
-15 16 -6 49 -16 75 -22 80 -18 111 -62 115 -162 3 -55 1 -59 -26 -73 -38 -20
-51 -9 -45 36 l5 37 -62 6 c-45 4 -65 2 -77 -9 -8 -8 -31 -14 -50 -14 -28 0
-43 8 -74 41 -22 22 -62 52 -90 66 -103 53 -145 97 -124 132 10 15 18 17 43
10 17 -5 52 -9 78 -9 44 0 47 2 58 36 9 25 26 44 58 64 26 16 50 30 55 30 4 0
7 -23 7 -51z m442 29 c32 -7 58 -16 58 -22 0 -5 8 -18 17 -28 28 -31 5 -40
-67 -26 -48 10 -68 19 -83 40 -19 26 -17 48 5 48 7 0 38 -5 70 -12z m294 -20
c36 -17 49 -55 48 -137 -2 -65 -6 -83 -28 -115 -14 -21 -26 -43 -26 -48 0 -5
-4 -6 -10 -3 -5 3 -24 52 -41 108 -17 56 -35 114 -41 129 -7 20 -7 35 3 58 12
27 18 30 44 25 17 -4 40 -11 51 -17z m-320 -78 c19 -8 24 -14 17 -21 -14 -14
-49 -3 -57 16 -6 18 3 19 40 5z m250 -171 c24 -89 31 -145 15 -120 -6 9 -18
12 -32 8 -23 -6 -102 24 -114 43 -10 15 -86 62 -92 57 -5 -5 66 -64 130 -107
42 -29 45 -42 17 -70 -11 -11 -20 -26 -20 -32 0 -7 -9 -24 -20 -38 -19 -24
-26 -50 -15 -50 26 0 65 35 76 67 15 46 30 62 67 69 26 5 31 2 46 -29 28 -60
32 -98 11 -114 -25 -17 -60 -17 -79 2 -8 8 -24 15 -35 15 -28 0 -28 -32 0 -69
23 -32 40 -93 30 -110 -4 -6 -33 -17 -64 -23 -44 -9 -67 -9 -102 0 -52 14 -85
15 -85 4 0 -4 13 -12 29 -18 26 -10 28 -16 30 -64 0 -42 -5 -61 -28 -94 -22
-33 -26 -47 -19 -66 13 -34 2 -36 -28 -4 -48 53 -101 138 -154 252 -50 105
-52 113 -36 130 9 10 16 31 16 47 0 36 21 105 32 105 14 0 27 44 17 56 -17 21
54 124 85 124 7 0 16 9 19 21 3 11 15 23 26 26 12 3 21 9 21 14 0 5 26 9 57 9
48 0 61 -4 85 -27 22 -21 30 -24 42 -14 8 7 13 18 10 25 -7 19 14 68 28 64 7
-3 22 -42 34 -89z m1244 -114 c8 -2 18 -4 22 -4 3 -1 19 -26 34 -56 23 -49 26
-63 20 -116 -6 -63 -25 -115 -26 -73 0 12 -18 44 -40 70 -63 76 -79 116 -66
159 8 25 15 34 26 29 8 -3 22 -7 30 -9z m-1781 -31 c48 -19 54 -33 40 -90 -14
-54 -24 -62 -50 -38 -11 10 -32 18 -46 19 -21 0 -29 8 -45 49 -10 27 -17 55
-14 63 7 18 67 17 115 -3z m1055 -25 c15 -23 30 -56 33 -75 5 -30 3 -34 -15
-34 -20 0 -33 16 -67 87 -16 34 -11 63 10 63 7 0 25 -18 39 -41z m-1084 -210
c50 -35 60 -47 60 -71 0 -20 -7 -32 -24 -39 -54 -25 -123 47 -110 115 3 20 8
36 10 36 2 0 31 -19 64 -41z m615 11 c3 -5 1 -10 -4 -10 -6 0 -11 5 -11 10 0
6 2 10 4 10 3 0 8 -4 11 -10z m-580 -189 c-3 -6 -11 -8 -17 -5 -6 4 -5 9 3 15
16 10 23 4 14 -10z m385 -62 c0 -6 -4 -7 -10 -4 -5 3 -10 11 -10 16 0 6 5 7
10 4 6 -3 10 -11 10 -16z m-314 -36 c45 -32 54 -43 54 -68 -1 -59 -71 -171
-85 -134 -41 116 -59 239 -34 239 6 0 35 -17 65 -37z m349 -233 c3 -6 -1 -7
-9 -4 -18 7 -21 14 -7 14 6 0 13 -4 16 -10z m775 -62 c-1 -7 -7 -24 -15 -38
-21 -37 -18 -40 20 -24 43 17 78 18 73 2 -3 -7 -29 -26 -59 -42 -30 -15 -75
-41 -101 -57 -27 -15 -48 -26 -48 -23 0 8 48 92 84 146 31 48 46 59 46 36z
m450 -289 c0 -5 9 -9 20 -9 11 0 20 -3 20 -6 0 -7 -63 -64 -71 -64 -4 0 -14
-3 -22 -6 -19 -7 -32 27 -15 38 7 4 23 8 35 8 28 0 40 20 19 32 -20 11 -21 29
-1 22 8 -4 15 -10 15 -15z m17 -115 c-9 -9 -28 6 -21 18 4 6 10 6 17 -1 6 -6
8 -13 4 -17z m-571 -101 c-10 -10 -19 5 -10 18 6 11 8 11 12 0 2 -7 1 -15 -2
-18z m363 1 l33 -16 -28 -29 c-31 -32 -80 -53 -90 -38 -9 15 4 39 18 34 8 -3
22 1 33 9 16 12 18 17 8 27 -12 12 -17 29 -10 29 2 0 18 -7 36 -16z m341 -45
c0 -15 -4 -30 -9 -33 -12 -8 -21 18 -21 56 0 26 2 29 15 18 8 -7 15 -25 15
-41z m-80 6 c14 -19 14 -19 -2 -6 -10 7 -18 18 -18 24 0 6 1 8 3 6 1 -2 9 -13
17 -24z m-260 -65 c0 -5 -4 -10 -10 -10 -5 0 -10 5 -10 10 0 6 5 10 10 10 6 0
10 -4 10 -10z m332 -22 c-7 -7 -12 -8 -12 -2 0 14 12 26 19 19 2 -3 -1 -11 -7
-17z"/>
<path d="M657 3093 c-4 -3 -7 -20 -7 -37 l1 -31 24 30 c14 17 25 33 25 38 0 9
-34 9 -43 0z"/>
</g>
</svg>
